PathFileType	4	(X/Y/Z)	OpenSim_Sub07_EMGStiffKnee_Accel.trc
DataRate	CameraRate	NumFrames	NumMarkers	Units	OrigDataRate	OrigDataStartFrame	OrigNumFrames
100	100	31	8	m	100	1848	7388
Frame#	Time	torso_imu_offset_imu	pelvis_imu_offset_imu	tibia_r_imu_offset_imu	femur_r_imu_offset_imu	tibia_l_imu_offset_imu	femur_l_imu_offset_imu	toes_r_imu_offset_imu	toes_l_imu_offset_imu
				X1	Y1	Z1	X2	Y2	Z2	X3	Y3	Z3	X4	Y4	Z4	X5	Y5	Z5	X6	Y6	Z6	X7	Y7	Z7	X8		Y8	Z8	

1848	18.47000000	-8.55496311	1.36239272	6.87680025	9.35939605	1.71371488	2.54529460	9.71687571	2.90812238	0.11557384	9.83078353	-0.07457803	0.02615128	10.01475527	-1.98616482	2.67826942	8.89965076	0.60856168	-0.01065909	5.26838536	1.38328494	8.49541170	8.71484160	2.15913718	11.29907351
1849	18.48000000	-8.52754722	1.41119552	6.94808159	9.40896477	1.76366907	2.53851538	9.81779587	2.76722461	0.19056636	9.71346969	0.15259116	0.17587837	10.39491115	-1.59889343	2.85244273	8.93245099	0.96470943	-0.02824508	4.97644711	1.42392705	8.63280716	8.27399924	2.44540313	10.72955590
1850	18.49000000	-8.51677621	1.42848023	6.95876492	9.45308739	1.79534217	2.54160050	9.84292029	2.45553434	0.12828925	9.66057794	0.31187883	0.24162199	10.58613551	-1.83231615	2.82506815	8.99838776	1.14285236	-0.07542140	4.93011778	1.48671651	8.68433105	8.70272701	2.70150554	10.66287722
1851	18.50000000	-8.50395614	1.44756505	6.96368700	9.38554982	1.82925749	2.54926169	9.85197189	2.26534174	-0.14591368	9.71069902	0.49942155	0.21441843	10.54283349	-2.43241424	2.57052950	9.19739859	1.36809206	-0.10946220	5.02291496	1.50281485	8.61482254	8.86818083	3.17800745	10.48776710
1852	18.51000000	-8.46558922	1.49858397	6.96069985	9.30872136	1.86076422	2.57025579	9.92811277	2.28848194	-0.30001905	9.68350062	0.62755049	0.17155814	10.40600614	-3.02867456	2.25247150	9.35951152	1.73410151	-0.02086044	5.18241472	1.30814836	8.59338982	8.73558847	3.22086933	10.52970812
1853	18.52000000	-8.42126925	1.49936758	6.94038961	9.23592668	1.89354682	2.56030535	9.96573513	2.05221773	-0.18337249	9.60583991	0.65241362	0.16060113	10.08731534	-3.52169795	1.86691425	9.42980600	2.02541376	0.16311642	4.95489128	1.23985104	8.64332734	10.05367549	2.56136783	11.05667000
1854	18.53000000	-8.39446925	1.47770059	6.92113538	9.17332275	1.94756118	2.53129717	9.96557553	1.49127781	-0.07851063	9.49201827	0.61041649	0.11565329	9.65131834	-4.03564007	1.46366390	9.26901825	2.12414092	0.34164862	4.87967629	1.18233304	8.60553560	10.94671652	2.30082612	10.65864058
1855	18.54000000	-8.32616711	1.47504333	6.81463518	9.09363962	1.97051293	2.55948523	9.95087412	0.99572636	-0.19655463	9.36669755	0.48594564	0.09686482	9.43849191	-4.47926737	1.00029059	8.96789478	2.28241682	0.44446758	5.03238858	1.09903790	8.54419343	9.50272266	2.49326409	9.83204767
1856	18.55000000	-8.23169851	1.46782740	6.71564323	8.90680526	1.93692657	2.49233458	9.92996342	0.72372287	-0.20228393	9.24966595	0.24052785	0.08389439	9.30563161	-4.58417550	0.64100835	8.74654045	2.49580112	0.40538679	5.28135315	1.03270607	8.43710043	9.17740163	2.18583888	9.46474620
1857	18.56000000	-8.18288904	1.44831040	6.66980530	8.76333201	1.91926102	2.33787856	9.77628172	0.65476565	-0.06335992	9.08123965	0.01102343	0.12954716	9.03934279	-4.35070435	0.54181335	8.66924792	2.80699178	0.26519658	4.88713678	1.03962119	8.54397695	10.95670954	2.02044392	9.16268178
1858	18.57000000	-8.21745841	1.39088498	6.64848785	8.67673794	1.90307280	2.26457251	9.73314613	0.62747908	0.23458149	9.00859801	-0.16059927	0.21435510	8.82065642	-4.11631614	0.65418645	8.59715316	3.10883452	0.38556486	4.77598547	1.08803017	8.67905957	12.05357846	2.85425893	9.10295979
1859	18.58000000	-8.34292237	1.35424980	6.60360548	8.62972543	1.83728413	2.15494196	9.86202310	0.43112866	0.47152178	9.18385576	-0.28745556	0.25737991	8.71529727	-3.87839530	0.93302423	8.51748058	3.12875701	0.18478532	4.94014268	1.18259338	8.65927577	12.58096917	3.54494959	8.96542741
1860	18.59000000	-8.42940784	1.29119889	6.57585145	8.68510585	1.90270930	2.04852313	10.01655694	0.07718799	0.47203759	9.35472227	-0.55940561	0.13450337	8.70233576	-3.29412166	1.15699059	8.27035172	3.37130553	0.41150514	5.14228586	1.21446254	8.55059317	13.02469432	3.35449550	7.72272187
1861	18.60000000	-8.45645807	1.18289969	6.41115100	8.66096161	2.03767098	1.97770629	10.00958976	-0.42966079	0.51065077	9.33946365	-0.84424019	-0.07730654	8.37161581	-2.30192484	1.29696695	7.78268694	3.72736611	1.48935494	4.92715639	1.22625439	8.62595647	12.81637634	2.05001769	6.43021722
1862	18.61000000	-8.50865138	1.07454680	6.19665734	8.50328354	2.37288418	1.90492914	9.93130140	-0.77860972	0.59069549	9.36026324	-0.99831950	-0.17952423	8.55627279	-2.06465307	0.87532236	7.79747070	3.68664989	1.11389235	4.89292926	1.16220576	8.66465545	11.54304176	-1.54492836	4.38516424
1863	18.62000000	-8.58620443	1.03726994	6.11436855	8.41884678	2.67437224	1.80970394	9.89749756	-0.75217325	0.48964436	9.48100877	-1.03611665	-0.11735209	9.44778128	-2.68717489	-0.05840333	7.73752444	4.20664591	0.73100252	4.91824857	1.28763572	8.74685170	12.21741773	-2.51878517	2.65744066
1864	18.63000000	-8.68724211	1.09935477	6.18166326	8.55210835	2.80724838	1.63100080	9.79760300	-0.61332373	0.54134085	9.46405204	-1.10833172	-0.05598324	9.26192940	-2.87060194	-0.29850257	7.24295427	4.59166989	0.81609835	5.18684604	1.18718432	8.51539717	14.46143778	0.76026415	3.84187976
1865	18.64000000	-8.79210812	1.16011395	6.33407146	8.66941292	2.95758848	1.46444265	9.62824560	-0.50098359	0.60843144	9.18963219	-1.24474866	-0.01475585	8.49457682	-2.82240443	0.27851163	6.93884240	4.48392976	0.61013670	5.10687078	1.01782039	8.51336816	15.37376437	0.55183443	3.74278823
1866	18.65000000	-8.87956754	1.20108072	6.33688868	8.72346866	2.82694619	1.41376937	9.57258493	-0.28477897	0.77456919	8.95262275	-1.29329121	0.05204176	8.37978858	-2.72136608	1.06707643	6.85936119	4.07251930	0.60594282	5.01493955	1.07824055	8.72210847	15.01230950	-0.88018384	1.79309534
1867	18.66000000	-9.00284990	1.19579122	6.31419078	8.75481904	2.72115611	1.31455226	9.59953572	0.05705035	0.89073742	8.83968986	-1.28192718	0.05059291	8.54367102	-2.31512886	1.58264734	7.14190744	3.53993058	0.99409142	4.55207747	1.63476502	9.18677252	13.96562163	-1.29618082	0.72799906
1868	18.67000000	-9.39180403	1.24933764	6.56499211	8.66489803	2.49202091	1.10264093	9.73142954	0.65954017	1.25886406	8.93112139	-1.37645795	0.03756929	8.27167053	-2.02925977	1.72974602	7.50427624	3.10810667	1.16359676	4.11652178	1.37959337	9.34466975	12.51888555	-0.14990190	-1.21318167
1869	18.68000000	-9.87451324	1.22525714	6.95640032	8.92052030	2.47282492	1.39739072	10.04729963	1.18116264	1.48981631	9.34764854	-1.45153915	-0.02293277	8.85360048	-2.56094758	1.72703070	8.15463097	2.71885644	0.68751074	4.35607232	1.12894837	9.28458143	7.82666717	7.13075485	-4.60874377
1870	18.69000000	-10.11405372	1.09468389	7.24981106	9.73182670	2.41612148	1.78415755	10.64582458	1.09265031	1.12915131	9.93998457	-1.41498642	-0.05743501	11.60456787	-2.58322522	0.90316113	8.90991139	3.01193832	-0.79816656	4.59602779	2.06651087	9.47490935	9.42162650	2.72044903	-9.74046076
1871	18.70000000	-10.65033546	1.08027914	7.65940093	10.31382193	2.13041210	1.91976841	11.26988051	0.70293539	1.49908078	10.36689322	-1.45007708	-0.13835302	12.82115000	-1.92692997	0.82522532	8.51451142	3.73929830	-3.03981525	4.54739989	1.79722048	9.34680917	19.50882815	-11.73352104	-1.43200163
1872	18.71000000	-11.30973605	1.04704136	7.84540254	10.73053616	1.78960727	2.79485322	11.51017357	0.75900432	2.21694970	10.35669808	-1.65025906	-0.35842380	11.99743791	-1.64460741	1.35074149	9.05539679	3.96380621	-3.90230840	4.16201397	1.75916332	9.77200850	16.16547986	-4.49024169	22.60836986
1873	18.72000000	-11.40529705	0.94443620	7.50230111	11.50834901	1.21548367	3.77757222	11.73383974	0.64286257	1.97616844	10.24689293	-1.91674062	-0.60280577	11.83118790	-0.05651191	0.68208026	11.89504273	4.57201446	-2.88851538	3.96634967	2.23516951	10.40510564	-0.42470726	-1.51174280	21.72631380
1874	18.73000000	-11.11811227	0.80536439	7.14510689	11.98591653	0.46020825	4.09557414	12.54176037	0.05535508	2.10427629	10.30389288	-2.18732268	-0.75071858	11.58812748	3.10971202	1.48845572	13.98828080	5.92054163	-2.22826646	3.19829911	1.48754052	10.95283227	-2.05580796	-14.76755665	7.46644020
1875	18.74000000	-11.08683797	0.71585596	7.05707621	11.55352269	-0.48777052	4.11347016	13.55781996	-0.10480753	3.53965981	10.30052393	-2.62473490	-0.74616337	12.50191051	3.89823650	5.19185173	15.57754718	5.05831259	-0.19350866	2.54676505	0.84463735	11.24412402	11.86499095	-9.44489396	13.13076130
1876	18.75000000	-11.15221539	0.60170670	6.95688899	11.29909397	-0.71240965	4.54364151	14.13814628	0.36038336	4.43507484	10.05167754	-3.13499158	-0.67458841	13.79815675	0.24889103	8.54436797	16.67278163	0.80332432	4.82260437	2.61852776	1.72723739	11.72843337	22.99529624	5.84031758	21.21164433
1877	18.76000000	-11.10340815	0.33608318	6.68883713	11.59217345	-0.34174809	5.03300451	14.84656580	1.18623119	3.79406229	9.83315437	-3.68377395	-0.51857309	15.00076269	-2.74753422	7.82917210	15.04077809	-2.47375231	7.25685995	2.38365305	1.93200354	12.61260660	21.72023516	4.03377237	16.82056523
1878	18.77000000	-10.74805720	0.07684985	6.24706386	11.42623258	0.07576711	5.14771094	16.48462982	1.92085396	2.70897456	10.11258029	-4.41529805	-0.36423854	14.71618138	-3.00085906	4.25505315	12.07292384	-1.75427934	3.58005190	2.18101942	0.74203381	13.67380015	7.60164800	-0.30515303	11.66195119
